<?xml version="1.0" encoding="UTF-8"?>
<svg xmlns="http://www.w3.org/2000/svg" xmlns:xlink="http://www.w3.org/1999/xlink" width="375pt" height="374.999991pt" viewBox="0 0 375 374.999991" version="1.2">
<defs>
<clipPath id="clip1">
  <path d="M 0 41.25 L 105 41.25 L 105 333.75 L 0 333.75 Z M 0 41.25 "/>
</clipPath>
<clipPath id="clip2">
  <path d="M 270 41.25 L 375 41.25 L 375 333.75 L 270 333.75 Z M 270 41.25 "/>
</clipPath>
</defs>
<g id="surface1">
<g clip-path="url(#clip1)" clip-rule="nonzero">
<path style=" stroke:none;fill-rule:nonzero;fill:rgb(43.139648%,52.159119%,69.799805%);fill-opacity:1;" d="M 0.0859375 205.765625 L 0.0859375 169.242188 C 9.316406 168.835938 16.265625 166.859375 20.9375 163.304688 C 25.601562 159.753906 28.847656 154.429688 30.675781 147.328125 C 32.5 140.226562 33.414062 128.507812 33.414062 112.171875 C 33.414062 94.925781 34.25 82.445312 35.925781 74.734375 C 37.601562 67.023438 40.769531 60.707031 45.4375 55.785156 C 50.101562 50.867188 56.371094 47.214844 64.234375 44.828125 C 72.09375 42.445312 82.722656 41.253906 96.117188 41.253906 L 104.179688 41.253906 L 104.179688 77.777344 C 90.585938 77.777344 82.011719 79.148438 78.460938 81.886719 C 74.910156 84.625 73.136719 90.613281 73.136719 99.84375 C 73.136719 128.152344 71.410156 148.011719 67.960938 159.425781 C 64.511719 170.839844 56.699219 180.199219 44.523438 187.503906 C 53.859375 192.578125 60.933594 200.160156 65.753906 210.253906 C 70.570312 220.351562 72.984375 242.039062 72.984375 275.3125 C 72.984375 283.226562 74.148438 288.351562 76.484375 290.683594 C 78.816406 293.015625 81.277344 294.71875 83.863281 295.78125 C 86.453125 296.847656 93.222656 297.378906 104.179688 297.378906 L 104.179688 333.753906 L 96.113281 333.753906 C 75.621094 333.753906 61.722656 331.242188 54.414062 326.21875 C 47.109375 321.199219 41.785156 315.386719 38.4375 308.792969 C 35.089844 302.199219 33.414062 286.933594 33.414062 262.988281 C 33.414062 246.753906 32.550781 235.136719 30.828125 228.136719 C 29.101562 221.136719 25.878906 215.785156 21.164062 212.078125 C 16.441406 208.375 9.410156 206.277344 0.0820312 205.765625 Z M 0.0859375 205.765625 "/>
</g>
<g clip-path="url(#clip2)" clip-rule="nonzero">
<path style=" stroke:none;fill-rule:nonzero;fill:rgb(43.139648%,52.159119%,69.799805%);fill-opacity:1;" d="M 353.84375 212.082031 C 349.125 215.785156 345.90625 221.136719 344.179688 228.136719 C 342.457031 235.136719 341.59375 246.757812 341.59375 262.988281 C 341.59375 286.933594 339.917969 302.199219 336.570312 308.796875 C 333.222656 315.390625 327.894531 321.199219 320.589844 326.222656 C 313.285156 331.242188 299.386719 333.753906 278.890625 333.753906 L 270.824219 333.753906 L 270.824219 297.382812 C 281.78125 297.382812 288.554688 296.851562 291.140625 295.785156 C 293.730469 294.71875 296.191406 293.019531 298.523438 290.6875 C 300.859375 288.355469 302.023438 283.230469 302.023438 275.316406 C 302.023438 242.039062 304.433594 220.351562 309.25 210.257812 C 314.070312 200.164062 321.148438 192.582031 330.480469 187.507812 C 318.304688 180.199219 310.496094 170.839844 307.042969 159.425781 C 303.597656 148.015625 301.871094 128.152344 301.871094 99.847656 C 301.871094 90.617188 300.097656 84.628906 296.542969 81.886719 C 292.992188 79.148438 284.421875 77.78125 270.824219 77.78125 L 270.824219 41.253906 L 278.890625 41.253906 C 292.28125 41.253906 302.914062 42.445312 310.773438 44.828125 C 318.636719 47.214844 324.902344 50.867188 329.570312 55.785156 C 334.238281 60.707031 337.40625 67.023438 339.082031 74.734375 C 340.753906 82.445312 341.589844 94.925781 341.589844 112.171875 C 341.589844 128.507812 342.503906 140.226562 344.332031 147.328125 C 346.15625 154.429688 349.40625 159.757812 354.070312 163.308594 C 358.738281 166.859375 365.691406 168.835938 374.921875 169.242188 L 374.921875 205.765625 C 365.582031 206.277344 358.550781 208.378906 353.835938 212.082031 Z M 353.84375 212.082031 "/>
</g>
</g>
</svg>
